<svg xmlns="http://www.w3.org/2000/svg" width="1600" height="900" viewBox="0 0 1600 900">
  <defs>
    <linearGradient id="sky" x1="0" x2="0" y1="0" y2="1">
      <stop offset="0" stop-color="#070713"/>
      <stop offset=".55" stop-color="#1a0a23"/>
      <stop offset="1" stop-color="#050307"/>
    </linearGradient>
    <radialGradient id="lamp" cx="50%" cy="0%" r="70%">
      <stop offset="0" stop-color="#ffd693" stop-opacity=".75"/>
      <stop offset=".36" stop-color="#ff8fb3" stop-opacity=".16"/>
      <stop offset="1" stop-color="#000" stop-opacity="0"/>
    </radialGradient>
  </defs>
  <rect width="1600" height="900" fill="url(#sky)"/>
  <rect width="1600" height="900" fill="url(#lamp)"/>
  <g opacity=".9">
    <circle cx="176" cy="102" r="3" fill="#fff"/>
    <circle cx="380" cy="132" r="2" fill="#fff"/>
    <circle cx="1280" cy="96" r="3" fill="#fff"/>
    <circle cx="1430" cy="168" r="2" fill="#fff"/>
    <circle cx="1080" cy="220" r="2" fill="#fff"/>
    <circle cx="770" cy="74" r="2" fill="#fff"/>
  </g>
  <g>
    <rect x="0" y="600" width="1600" height="300" fill="#130814"/>
    <rect x="120" y="470" width="1360" height="230" rx="34" fill="#2d1029"/>
    <rect x="165" y="505" width="1270" height="45" rx="22" fill="#5a2542"/>
    <rect x="220" y="550" width="1160" height="120" rx="36" fill="#391431"/>
    <rect x="260" y="610" width="1080" height="34" rx="17" fill="#f2ad61" opacity=".7"/>
    <rect x="520" y="300" width="560" height="170" rx="36" fill="#271024" opacity=".86"/>
    <text x="800" y="395" text-anchor="middle" fill="#fff4df" font-size="44" font-family="Arial, sans-serif" font-weight="800">深夜酒吧</text>
    <text x="800" y="438" text-anchor="middle" fill="#ffd693" font-size="24" font-family="Arial, sans-serif">Bar Background Placeholder</text>
    <g opacity=".8">
      <rect x="345" y="380" width="32" height="90" rx="14" fill="#86cfff"/>
      <rect x="393" y="350" width="32" height="120" rx="14" fill="#ff8fb3"/>
      <rect x="441" y="395" width="32" height="75" rx="14" fill="#ffd693"/>
      <rect x="1125" y="380" width="32" height="90" rx="14" fill="#86cfff"/>
      <rect x="1173" y="350" width="32" height="120" rx="14" fill="#ff8fb3"/>
      <rect x="1221" y="395" width="32" height="75" rx="14" fill="#ffd693"/>
    </g>
  </g>
</svg>